<svg width="48" height="49" viewBox="0 0 48 49" fill="none" xmlns="http://www.w3.org/2000/svg">
<g clip-path="url(#clip0_41_27)">
<path fill-rule="evenodd" clip-rule="evenodd" d="M45.3504 0.232422H2.6496C1.1856 0.232422 0 1.41802 0 2.88202V45.5828C0 47.0468 1.1856 48.2324 2.6496 48.2324H25.6368V29.6444H19.3824V22.4012H25.6368V17.0564C25.6368 10.8548 29.424 7.48042 34.956 7.48042C37.6056 7.48042 39.8808 7.67722 40.5456 7.76602V14.246H36.7104C33.7008 14.246 33.12 15.6764 33.12 17.774V22.3988H40.2936L39.3576 29.642H33.1176V48.2324H45.3504C46.8144 48.2324 48 47.0468 48 45.5828V2.88202C48 1.41802 46.8144 0.232422 45.3504 0.232422Z" fill="#F6D30F"/>
</g>
<defs>
<clipPath id="clip0_41_27">
<rect width="48" height="48" fill="white" transform="translate(0 0.232422)"/>
</clipPath>
</defs>
</svg>
