<svg width="48" height="49" viewBox="0 0 48 49" fill="none" xmlns="http://www.w3.org/2000/svg">
<g clip-path="url(#clip0_41_29)">
<path d="M24 16.2324C21.8783 16.2324 19.8434 17.0753 18.3431 18.5756C16.8429 20.0759 16 22.1107 16 24.2324C16 26.3542 16.8429 28.389 18.3431 29.8893C19.8434 31.3896 21.8783 32.2324 24 32.2324C26.1217 32.2324 28.1566 31.3896 29.6569 29.8893C31.1571 28.389 32 26.3542 32 24.2324C32 22.1107 31.1571 20.0759 29.6569 18.5756C28.1566 17.0753 26.1217 16.2324 24 16.2324Z" fill="#F6D30F"/>
<path fill-rule="evenodd" clip-rule="evenodd" d="M14.4 0.232422C10.5809 0.232422 6.91819 1.74956 4.21766 4.45008C1.51714 7.15061 0 10.8133 0 14.6324L0 33.8324C0 37.6515 1.51714 41.3142 4.21766 44.0148C6.91819 46.7153 10.5809 48.2324 14.4 48.2324H33.6C37.4191 48.2324 41.0818 46.7153 43.7823 44.0148C46.4829 41.3142 48 37.6515 48 33.8324V14.6324C48 10.8133 46.4829 7.15061 43.7823 4.45008C41.0818 1.74956 37.4191 0.232422 33.6 0.232422L14.4 0.232422ZM12.8 24.2324C12.8 21.262 13.98 18.4132 16.0804 16.3128C18.1808 14.2124 21.0296 13.0324 24 13.0324C26.9704 13.0324 29.8192 14.2124 31.9196 16.3128C34.02 18.4132 35.2 21.262 35.2 24.2324C35.2 27.2028 34.02 30.0516 31.9196 32.152C29.8192 34.2524 26.9704 35.4324 24 35.4324C21.0296 35.4324 18.1808 34.2524 16.0804 32.152C13.98 30.0516 12.8 27.2028 12.8 24.2324ZM35.2 13.0324H38.4V9.83242H35.2V13.0324Z" fill="#F6D30F"/>
</g>
<defs>
<clipPath id="clip0_41_29">
<rect width="48" height="48" fill="white" transform="translate(0 0.232422)"/>
</clipPath>
</defs>
</svg>
