<svg width="48" height="49" viewBox="0 0 48 49" fill="none" xmlns="http://www.w3.org/2000/svg">
<path d="M24 9.96099C16.2107 9.96099 9.87857 16.2931 9.86786 24.0824C9.86786 26.7503 10.6179 29.3539 12.0321 31.5931L12.3643 32.1289L10.9393 37.336L16.2857 35.9324L16.8 36.2431C18.9643 37.5289 21.45 38.2146 23.9893 38.2146H24C31.7786 38.2146 38.2821 31.8824 38.2821 24.0931C38.2821 20.3217 36.6536 16.7753 33.9857 14.1074C31.3071 11.4289 27.7714 9.96099 24 9.96099ZM32.3036 30.1467C31.95 31.1431 30.2571 32.0431 29.4429 32.161C28.0929 32.3646 27.0429 32.2574 24.3536 31.1003C20.1 29.2574 17.3143 24.9717 17.1 24.6931C16.8857 24.4146 15.3643 22.3896 15.3643 20.3003C15.3643 18.211 16.4571 17.1824 16.8536 16.7539C17.2393 16.3253 17.7 16.2181 17.9893 16.2181C18.2679 16.2181 18.5571 16.2181 18.8036 16.2289C19.0607 16.2396 19.4143 16.1324 19.7571 16.9574C20.1107 17.8039 20.9571 19.8931 21.0643 20.1074C21.1714 20.3217 21.2464 20.5681 21.0964 20.8467C20.2821 22.4753 19.4143 22.411 19.8536 23.161C21.4929 25.9789 23.1321 26.9539 25.6286 28.2074C26.0571 28.4217 26.3036 28.3896 26.55 28.1003C26.7964 27.8217 27.6107 26.8574 27.8893 26.4396C28.1679 26.011 28.4571 26.086 28.8429 26.2253C29.2286 26.3646 31.3179 27.3931 31.7464 27.6074C32.175 27.8217 32.4536 27.9289 32.5607 28.1003C32.6571 28.3039 32.6571 29.161 32.3036 30.1467ZM42.8571 0.232422H5.14286C2.30357 0.232422 0 2.53599 0 5.37528V43.0896C0 45.9289 2.30357 48.2324 5.14286 48.2324H42.8571C45.6964 48.2324 48 45.9289 48 43.0896V5.37528C48 2.53599 45.6964 0.232422 42.8571 0.232422ZM23.9893 41.0753C21.1393 41.0753 18.3429 40.3574 15.8679 39.0074L6.85714 41.3753L9.26786 32.5681C7.77857 29.9967 6.99643 27.0717 6.99643 24.0717C7.00714 14.7074 14.625 7.08956 23.9893 7.08956C28.5321 7.08956 32.7964 8.85742 36.0107 12.0717C39.2143 15.286 41.1429 19.5503 41.1429 24.0931C41.1429 33.4574 33.3536 41.0753 23.9893 41.0753Z" fill="#F6D30F"/>
</svg>
